<?xml version="1.0" standalone="no"?>
<!DOCTYPE svg PUBLIC "-//W3C//DTD SVG 20010904//EN"
 "http://www.w3.org/TR/2001/REC-SVG-20010904/DTD/svg10.dtd">
<svg version="1.0" xmlns="http://www.w3.org/2000/svg"
 width="1366.000000pt" height="295.000000pt" viewBox="0 0 1366.000000 295.000000"
 preserveAspectRatio="xMidYMid meet">

<g transform="translate(0.000000,295.000000) scale(0.100000,-0.100000)"
fill="#000000" stroke="none">
<path d="M1275 2719 c-199 -21 -437 -115 -600 -237 -153 -113 -297 -285 -384
-460 -69 -137 -121 -343 -121 -478 l0 -64 625 0 625 0 0 625 0 625 -32 -1
c-18 -1 -69 -5 -113 -10z"/>
<path d="M1930 2497 c-159 -36 -281 -166 -311 -329 -31 -171 64 -354 226 -434
55 -27 69 -29 170 -29 104 0 114 2 175 32 83 41 152 110 193 193 30 60 32 72
32 170 0 94 -3 111 -27 163 -51 109 -124 179 -229 218 -64 25 -162 31 -229 16z"/>
<path d="M3855 2429 c-279 -41 -464 -221 -482 -471 -10 -140 27 -258 111 -354
83 -94 186 -148 465 -245 173 -60 245 -95 289 -142 85 -88 52 -213 -70 -268
-76 -34 -230 -34 -303 -1 -83 38 -140 107 -165 200 l-11 42 -181 0 -180 0 7
-57 c28 -235 186 -418 430 -500 75 -25 92 -27 250 -27 157 0 176 2 250 27 228
75 357 225 380 438 16 151 -34 288 -140 388 -81 75 -171 120 -409 201 -197 67
-258 95 -310 140 -88 77 -67 213 42 277 61 36 198 45 268 18 84 -32 146 -107
160 -192 l7 -43 178 0 179 0 0 38 c0 20 -7 61 -14 90 -85 317 -386 494 -751
441z"/>
<path d="M10993 2431 c-353 -57 -638 -328 -730 -697 -27 -109 -24 -344 6 -454
64 -237 215 -441 417 -562 277 -167 619 -157 889 24 139 93 282 271 343 428
49 125 57 177 56 355 0 155 -3 178 -27 258 -64 207 -196 393 -362 507 -66 46
-199 105 -277 124 -80 20 -242 28 -315 17z m232 -356 c180 -47 335 -214 381
-411 24 -101 15 -256 -19 -353 -114 -324 -460 -460 -731 -287 -150 96 -255
297 -256 488 -1 367 308 645 625 563z"/>
<path d="M12625 2426 c-183 -36 -331 -139 -400 -280 -90 -182 -61 -351 84
-494 l65 -65 -24 -15 c-56 -35 -181 -172 -205 -225 -80 -174 -42 -390 94 -539
133 -146 326 -216 565 -205 363 15 617 240 617 544 0 91 -12 145 -46 214 -30
58 -114 151 -174 191 -25 17 -47 32 -49 33 -2 2 27 31 63 66 94 90 128 163
133 283 4 106 -14 172 -74 261 -65 99 -190 185 -319 219 -84 23 -244 29 -330
12z m231 -321 c55 -16 103 -56 129 -104 24 -48 22 -132 -6 -181 -79 -140 -329
-146 -424 -11 -26 36 -30 52 -30 104 0 75 23 119 82 160 66 47 159 59 249 32z
m0 -708 c157 -33 242 -146 213 -285 -9 -48 -19 -65 -63 -108 -62 -63 -123 -84
-241 -84 -148 0 -246 48 -291 143 -97 208 111 391 382 334z"/>
<path d="M4727 2403 c-4 -3 -7 -82 -7 -175 l0 -168 260 0 260 0 0 -715 0 -715
180 0 180 0 0 715 0 715 260 0 260 0 -2 173 -3 172 -691 3 c-380 1 -694 -1
-697 -5z"/>
<path d="M6273 1778 c3 -609 4 -635 23 -694 65 -189 183 -329 345 -407 111
-54 213 -77 339 -77 283 0 517 136 632 367 83 165 83 164 83 843 l0 595 -180
0 -180 0 -5 -605 -5 -605 -28 -57 c-38 -77 -118 -149 -192 -172 -43 -14 -78
-17 -148 -14 -112 5 -172 32 -240 108 -84 94 -81 66 -87 745 l-5 600 -178 3
-178 2 4 -632z"/>
<path d="M7990 1520 l0 -890 324 0 c244 0 345 4 411 15 328 57 598 302 696
631 27 90 36 285 19 392 -43 270 -214 506 -462 636 -170 90 -278 106 -710 106
l-278 0 0 -890z m739 511 c372 -128 484 -614 207 -895 -118 -118 -225 -156
-443 -156 l-143 0 0 541 0 542 158 -5 c127 -4 169 -9 221 -27z"/>
<path d="M9670 1520 l0 -890 180 0 180 0 -2 888 -3 887 -177 3 -178 2 0 -890z"/>
<path d="M1420 845 l0 -625 28 0 c15 0 66 5 113 10 418 48 794 311 978 685 79
160 131 359 131 503 l0 52 -625 0 -625 0 0 -625z"/>
<path d="M719 1287 c-291 -83 -389 -449 -180 -670 192 -203 529 -151 653 101
31 63 33 72 33 177 0 99 -3 116 -27 168 -38 81 -117 161 -197 199 -53 25 -80
31 -150 34 -52 2 -104 -1 -132 -9z"/>
</g>
</svg>
